<!-- Generator: Adobe Illustrator 19.2.1, SVG Export Plug-In  -->
<svg version="1.1"
	 xmlns="http://www.w3.org/2000/svg" xmlns:xlink="http://www.w3.org/1999/xlink" xmlns:a="http://ns.adobe.com/AdobeSVGViewerExtensions/3.0/"
	 x="0px" y="0px" width="426.184px" height="162.843px" viewBox="0 0 426.184 162.843"
	 style="enable-background:new 0 0 426.184 162.843;" xml:space="preserve">
<style type="text/css">
	.st0{fill:#FFFFFF;}
</style>
<defs>
</defs>
<g>
	<path d="M426.184,23.728c-8.091-4.264-13.767-6.663-17.032-7.938c-1.438-0.562-4.367-1.699-7.553-2.835
		c-1.772-0.632-3.536-1.248-5.277-1.865c0.335-0.361,0.384-1.216-0.213-1.965C386.693,6.083,377.278,3.042,367.863,0
		c3.768,2.013,7.982,4.016,12.645,5.876c2.097,0.837,4.147,1.589,6.137,2.266c0.821,0.401,1.643,0.803,2.464,1.204
		c-0.228,0.055-0.484,0.105-0.766,0.143c-0.284,0.038-0.546,0.056-0.783,0.063c-0.247,0.292-0.495,0.584-0.742,0.876
		c0.363,1.137,0.655,2.051,0.995,3.118c-1.818,0.453-0.889,1.518-0.003,2.632c-1.659,0.228-2.991,0.411-4.467,0.613
		c0.464,2.195-0.829,2.88-2.759,3.212c-3.645,0.626-7.263,1.387-10.896,2.074c-17.701,3.346-35.4,6.702-53.106,10.023
		c-7.906,1.483-15.83,2.881-23.738,4.354c-1.086,0.202-2.131,0.602-3.194,0.916c-0.461-0.568-1.163-0.957-1.756-1.136
		c-1-0.301-1.915-0.124-2.456,0.091c-1.917,0.762-3.757,1.871-5.754,2.24c-4.155,0.769-8.381,1.477-12.598,1.602
		c-4.816,0.142-9.656-0.355-14.481-0.642c-0.5-0.03-0.969-0.517-1.452-0.792c0.315-0.424,0.527-1.028,0.959-1.244
		c9.247-4.617,18.5-9.226,27.803-13.741c1.83-0.888,4.512-0.88,5.674-2.178c1.755-1.959,3.893-2.931,6.144-3.923
		c2.991-1.318-1.144-2.899,0.196-4.336c0.131-0.141-0.691-1.067-1.07-1.628c-0.571,0.405-1.336,0.71-1.65,1.248
		c-0.23,0.394,0.276,1.117,0.181,1.65c-0.079,0.438-0.673,1.196-0.845,1.151c-1.049-0.273-2.042-0.734-3.169-1.178
		c0.668-0.585,1.147-1.005,1.915-1.679c-0.111-0.214-0.222-0.428-0.334-0.641c-0.118-0.312-0.234-0.631-0.348-0.957
		c-0.158-0.45-0.305-0.891-0.442-1.324c1.676,0.351,3.236,0.679,4.796,1.006c0.062-0.184,0.124-0.368,0.187-0.552
		c0.526-0.193,1.053-0.385,1.579-0.578c1.906-0.188,3.812-0.377,5.717-0.565c40.013-5.303,51.037-6.793,51.032-6.825
		c-0.01-0.066-46.527,3.899-55.942,4.761c-2.451,0.224-4.957-0.071-7.408,0.158c-2.178,0.204-4.296,1.005-6.473,1.18
		c-2.918,0.234-5.884-0.054-8.802,0.185c-11.74,0.962-23.485,1.911-35.195,3.141c-4.803,0.504-9.523,1.708-14.28,2.594
		c0.358,0.217,0.691,0.228,1.023,0.215c11.931-0.48,23.866-0.905,35.792-1.474c4.968-0.237,10.032-0.011,14.658-2.439
		c1.293-0.679,3.023-0.735,4.569-0.825c0.776-0.045,1.589,0.477,2.273,0.705c-0.993,1.293-2.4,2.357-2.209,3.002
		c1.131,3.806-1.431,5.216-4.29,6.592c-6.562,3.157-13.061,6.435-19.696,9.452c-2.429,1.105-5.188,1.553-7.756,2.408
		c-1.539,0.512-3.083,1.11-4.447,1.93c-0.394,0.237-0.231,1.291-0.294,2.015c-3.946-0.499-7.892-0.999-12.111-1.533l0.418,1.985
		c-0.837-0.186-1.529-0.339-2.284-0.507c0.019,0.713,0.033,1.208,0.046,1.702c-0.368-0.182-1.02-0.319-1.061-0.551
		c-0.531-3.009-2.577-2.32-5.178-1.815c0.87,2.084,1.611,3.931,2.411,5.756c0.685,1.563,0.758,2.906-1.338,3.915
		c-0.815-3.868-1.626-7.531-2.348-11.21c-0.562-2.865-1.981-5.787,0.393-8.554c0.1-0.116-0.077-0.443-0.201-1.029
		c-3.158,0.917-6.209,1.802-9.26,2.688c-0.028-0.136-0.056-0.271-0.083-0.407c2.553-1.661,5.105-3.322,7.658-4.983
		c-1.453-1.04-2.498-1.56-3.582-1.644c-6.359-0.494-12.389,0.675-17.82,3.845c-1.629,0.951-3.332,1.949-2.44,4.792
		c0.451,1.437,1.723,2.052,1.976,3.366c0.678,3.519,1.457,7.02,2.196,10.528c-0.142,0.024-0.284,0.047-0.425,0.071
		c-0.406-0.766-0.811-1.533-1.448-2.736c-3.503,1.909-6.859,3.59-10.048,5.515c-3.345,2.02-6.658,4.124-9.753,6.462
		c-4.428,3.345-4.849,10.759,3.118,12.813c0.58-0.471,1.169-0.948,1.757-1.426c-0.162,1.485-0.354,3.183-2.358,2.612
		c-1.953-0.557-4.016-1.317-5.542-2.531c-2.694-2.143-3.488-5.079-2.059-8.769c-1.46,0.674-2.431,1.168-3.439,1.581
		c-6.75,2.764-13.474,5.554-21.039,5.788c-2.277,0.07-4.581,0.524-6.788,1.092c-1.508,0.388-2.802,1.54-4.311,1.884
		c-2.382,0.543-4.897,0.556-7.301,1.033c-10.68,2.118-21.318,4.425-32.014,6.465c-9.739,1.857-19.531,3.475-29.305,5.165
		c-6.941,1.2-13.895,2.33-20.835,3.53c-0.783,0.135-1.518,0.523-2.32,0.81c-0.446-1.074-0.886-2.135-1.326-3.196
		c-0.21,0.053-0.419,0.106-0.629,0.159c0.217,1.44,0.433,2.881,0.754,5.017c-1.388-1.577-2.128-3.2-3.237-3.468
		c-1.221-0.294-2.782,0.658-4.195,1.068c-0.103-0.312-0.205-0.625-0.308-0.937c2.03-0.526,4.06-1.052,6.09-1.578
		c0.013-0.328,0.026-0.656,0.039-0.985c-1.29-0.367-2.58-0.734-3.898-1.11c-0.141-0.483-0.318-1.09-0.494-1.696
		c-0.888,0.252-1.776,0.504-2.751,0.781c0.068-2.078-1.593-1.603-2.869-1.721l0.056,0.057c-0.575,0.872-1.204,1.718-1.706,2.626
		c-0.292,0.529-0.464,1.147-0.544,1.743c-0.281,2.09-2.465,1.135-3.513,1.989c-2.955,2.41-12.358,8.943-17.008,13.905
		c-4.366,4.66-7.59,8.12-8.747,9.364c2.181-0.977,5.355-2.567,8.852-5.002c2.316-1.613,3.591-2.773,6.404-5.07
		c2.244-1.833,5.482-4.401,9.585-7.396c0.722,1.969,1.443,3.938,2.165,5.908c0.626-0.147,1.025-0.256,1.431-0.334
		c3.562-0.681,7.126-1.354,10.688-2.036c1.576-0.302,3.493,0.179,4.389-1.797c0.07-0.155,2.023,0.031,2.513,0.549
		c0.861,0.911,1.289,1.151,2.512,0.435c1.188-0.695,2.705-0.936,4.109-1.251c1.225-0.274,2.514-0.3,3.739-0.573
		c0.899-0.2,1.713-0.752,2.613-0.927c23.442-4.551,46.878-9.128,70.35-13.535c3.145-0.59,6.425-2.193,9.751-0.268
		c0.337,0.195,1.029-0.042,1.512-0.198c2.377-0.765,4.682-1.824,7.118-2.313c7.287-1.461,14.602-2.85,22.148-2.178
		c0.695,0.062,1.456-0.539,2.456-0.941c0.303,0.3,0.855,0.847,1.309,1.297c-1.133,0.793-2.152,1.404-3.035,2.158
		c-0.729,0.623-1.3,1.41-1.932,2.132c-0.573,0.654-0.991,1.55-1.719,1.944c-9.961,5.391-19.962,10.716-29.956,16.053
		c-3.487,1.862-6.98,3.715-10.47,5.572c-0.754,0.397-1.508,0.795-2.261,1.192c-6.571,0.098-13.128,0.394-19.586,2.048
		c-1.038,0.266-2.392-0.757-3.64-0.947c-0.768-0.117-1.717,0.034-2.397,0.385c-0.785,0.405-1.364,1.162-2.032,1.767
		c-0.14-0.138-0.28-0.276-0.42-0.415c0.47-0.201,0.939-0.401,1.458-0.623c-1.222-0.549-2.183-1.22-3.223-1.354
		c-0.588-0.076-1.928,0.902-1.863,1.111c0.443,1.422-0.745,1.356-1.497,1.703c-0.243,0.229-0.487,0.458-0.73,0.686
		c-0.469,0.62-0.802,1.573-1.431,1.8c-2.391,0.861-3.224,2.213-2.398,4.551c0.726,2.056,1.267,4.169,1.928,6.387
		c-2.324,0.825-1.425,2.629-0.676,3.941c0.271,0.475,2.137,0.193,3.273,0.176c2.902-0.042,5.841-0.427,8.691-0.098
		c2.032,0.234,3.618,0.257,5.152-1.142c2.916-2.657,6.269-4.559,10.47-4.741c1.448-0.063,2.538-0.242,3.041-1.942
		c0.201-0.678,1.963-0.947,3.013-1.406c0.507-0.222,1.399-0.391,1.452-0.689c0.556-3.093,3.216-3.611,5.693-3.836
		c12.238-1.114,24.494-2.065,36.745-3.054c4.473-0.361,8.951-0.667,13.728-1.021c-0.111,0.467-0.221,0.933-0.332,1.399
		c0.038,0.046,0.078,0.091,0.111,0.144c0.603,0.96,1.014,2.027,1.757,2.884c0.424,0.246,0.875,0.484,1.302,0.771
		c1.676,0.087,3.236,0.885,4.798,1.669c0.11,0.027,0.22,0.052,0.329,0.079c0.113,0.004,0.229,0.009,0.349,0.018
		c1.16,0.083,2.385-0.092,3.521-0.369c3.804-0.925,7.576-1.965,11.374-2.912c0.456-0.114,1.014,0.01,1.496,0.128
		c2.206,0.538,4.412,1.08,6.597,1.69c0.842,0.235,1.715,0.539,2.416,1.016c0.951,0.647,1.751,1.492,3.15,2.721l1.969,9.348
		c-2.046,0.381-3.822,0.726-5.605,1.04c-3.095,0.545-6.09,1.295-8.347,3.557c-0.848,0.85-1.605,1.78-2.465,2.617
		c-1.774,1.725-3.64,3.367-5.377,5.124c-2.431,2.459-4.779,4.992-6.824,7.138c0.215,0.251,0.745,0.869,1.47,1.713
		c-3.839,0.559-5.745,2.436-5.158,4.623c0.629,2.34,1.211,4.699,2.014,6.988c0.38,1.082,1.129,2.782,1.882,2.867
		c1.647,0.186,3.402-0.481,5.279-0.83c4.352,9.106,7.345,9.878,16.639,8.302c1.536-0.26,3.071-0.531,4.605-0.802
		c6.391-1.128,12.79-2.22,19.17-3.397c5.681-1.048,11.398-1.989,16.996-3.352c4.919-1.198,7.046-4.509,6.377-9.356
		c-0.26-1.879,0.418-2.366,2.237-2.632c3.734-0.545,7.426-1.337,11.278-2.054l-2.823-13.404c-1.16-0.087-2.009-0.151-3.335-0.251
		c1.153-0.494,1.8-0.771,2.456-1.052c-3.103-5.598-16.962-9.66-21.32-6.416c0.317,0.668,0.63,1.327,1.112,2.342
		c-2.375-1.281-4.98-1.86-3.675-5.132c-1.161-0.128-2.149-0.495-2.961-0.279c-2.311,0.615-2.797-0.481-3.155-2.288
		c-0.948-4.786-2.11-9.534-3.069-14.318c-0.097-0.482,0.465-1.356,0.969-1.605c0.785-0.388,1.782-0.396,2.801-0.585
		c0.019,0.066,0.036,0.125,0.055,0.191c0.244-0.067,0.498-0.098,0.754-0.096l-0.03-0.144c3.968-0.739,7.709-1.997,11.428-1.945
		c1.838,0.026,3.529,0.045,5.139-0.351c0.54-0.489,1.13-0.927,1.755-1.327c0.057-0.067,0.121-0.133,0.197-0.197
		c1.466-1.24,2.702-2.548,3.914-3.943c0.046-0.756,0.45-1.447,1.215-1.845c0.203-0.106,0.419-0.182,0.641-0.238
		c0.99-0.934,2.139-1.589,3.567-1.749c3.834-1.159,6.616-2.093,7.118-2.237c5.113-1.462,8.49-2.122,14.947-4.013
		c5.449-1.595,11.118-2.623,16.127-5.413c0.314-0.175,1.504-0.609,3.132-1.118c2.381-0.744,4.415-1.148,5.82-1.376
		c0.582-0.381,1.829-1.072,3.49-1.065c0.518,0.002,0.977,0.072,1.361,0.162c-2.038,1.1-4.076,2.2-6.114,3.3
		c0.032,0.334,0.128,0.863,0.456,1.42c0.476,0.808,1.351,1.031,1.781,1.571c0.379,0.476,1.3,0.814,1.959,0.797
		c1.955-0.051,3.63-0.267,4.237-0.477c1.658-0.574,4.358-0.773,8.911,0.944c0.522-0.042,1.044-0.083,1.565-0.125
		c0.328-0.058,0.848-0.148,1.487-0.256c3.996-0.672,6.277-1.248,7.879-1.742c1.919-0.592,2.883-0.393,3.277-1.101
		c0.352-0.633,0.088-1.419-0.179-1.965c-0.241-0.364-0.483-0.729-0.724-1.093c-0.121-2.416-0.241-4.833-0.393-7.877
		c-2.145,2.451,1.661,5.706-2.386,7.163l-1.104-5.241l-10.925,2.034c-0.044-0.144-0.087-0.287-0.131-0.431
		c0.388-0.325,0.776-0.651,1.383-1.159c-1.433-0.357-2.549-0.635-3.665-0.912l0.064-0.844c0.842,0.019,1.683,0.038,2.66,0.06
		c1.5-2.324,2.278-2.657,3.981-1.322c-1.936,0.353-3.625,0.884-1.944,3.405c0.908-0.733,1.764-1.424,2.682-2.164
		c0.785,0.379,1.716,0.83,2.648,1.28c0.192-0.159,0.384-0.317,0.576-0.476c-0.838-1.066-1.675-2.133-2.97-3.781
		c1.831,0.93,3.025,1.536,4.218,2.141c0.096-0.211,0.191-0.422,0.287-0.633c-0.794-0.444-1.589-0.889-2.776-1.554
		c0.927-0.333,2.333-0.843,4.037-1.477c8.308-3.088,14.302-5.622,17.299-6.878c2.595-1.087-1.206,0.522,29.354-11.782
		c4.028-1.622,10.327-4.16,14.183-5.716c-0.727-0.001-1.6,0.048-2.575,0.212c0,0-0.238,0.005-0.461,0.085
		c-14.827,5.296-29.647,10.612-44.483,15.886c-2.751,0.978-5.582,1.757-8.352,2.691c-0.73,0.246-1.358,0.749-2.054,1.096
		c-0.848,0.423-1.688,1.069-2.584,1.16c-2.696,0.272-5.418,0.32-8.129,0.463c-0.065,0.003-0.112,0.137-0.186,0.161
		c-0.904,0.292-1.818,0.556-2.715,0.864c-1.664,0.571-4.408,0.838-4.743,1.822c-0.627,1.842-1.779,1.644-3.054,1.904
		c-3.723,0.757-7.503,1.345-11.136,2.385c-2.559,0.733-4.718,0.998-7.542,0.421c-13.45-2.751-27.022-4.972-40.548-7.395
		c-1.016-0.182-2.082-0.331-2.997-0.745c-1.293-0.586-2.467-1.405-4.108-2.37c0.958-0.659,2.193-1.628,3.547-2.419
		c6.91-4.037,15.044-4.13,22.597-6.098c0.387-0.101,0.94,0.448,1.37,0.391c2.28-0.305,4.576-0.592,6.803-1.124
		c1.058-0.253,1.908-1.337,2.961-1.535c25.682-4.845,51.376-9.63,77.074-14.399c3.926-0.728,7.879-1.325,11.819-1.983
		c0.08-0.013,0.34-0.028,0.669-0.115c1.122-0.294,1.768-1.001,2.209-1.399c0.552-0.498,1.452-1.116,2.946-1.546
		c0.317-0.558,0.633-1.116,0.95-1.674c0.338-0.657,0.545-0.972,0.62-0.947c0.071,0.024,0.027,0.346-0.131,0.967
		c0.225,0.572,0.451,1.144,0.71,1.801c2.33-0.7,4.66-1.399,6.99-2.099c0.131-0.513,0.262-1.026,0.393-1.539
		c0.699-0.307,1.397-0.613,2.095-0.92c0.385-0.204,0.612-0.443,0.75-0.638c0.674-0.954,0.375-2.486-0.724-3.856
		c4.957,2.175,10.763,4.32,17.374,6.077C419.967,22.487,423.165,23.182,426.184,23.728z M55.875,82.724
		c-0.03-0.137-0.061-0.274-0.091-0.411l79.712-14.837c0.042,0.135,0.084,0.269,0.126,0.404L55.875,82.724z M146.026,65.659
		c-0.02-0.074-0.039-0.147-0.059-0.221l10.55-1.964c0.017,0.074,0.034,0.148,0.051,0.223L146.026,65.659z M95.877,103.219
		c-1.236,1.398-2.471,2.794-3.73,4.218C92.091,104.809,93.467,103.273,95.877,103.219z M100.177,107.039
		c0.207,1.668,0.403,3.243,0.599,4.818c-0.201,0.121-0.402,0.242-0.604,0.363c-1.661-1.658-3.322-3.316-4.842-4.833
		c3.541-1.318,7.344-3.667,11.833-2.869C105.076,105.27,102.681,106.135,100.177,107.039z M126.992,97.153
		c1.328-0.416,2.779-0.898,4.325-1.455c8.089-2.916,17.508-8.664,28.266-14.084c4.815-2.426,9.571-4.954,14.385-7.381
		c0.616-0.311,1.42-0.291,2.137-0.425c0.085,0.259,0.169,0.519,0.254,0.778c-14.389,7.494-28.779,14.987-43.168,22.481
		C131.126,97.115,129.059,97.132,126.992,97.153z M186.26,81.567c0.083,2.657-1.087,3.443-3.26,3.558
		c-1.996,0.106-2.766,1.013-2.413,3.288c0.392,2.53-0.313,5.21-0.576,8.238c-14.054,0.067-27.966,0.133-41.887,0.207
		c11.574-2.157,20.343-9.679,30.681-14.196c1.724-0.753,3.636-1.144,5.483-1.624c2.694-0.7,5.211-1.556,6.889-3.915
		c0.604-0.849,1.723-1.374,2.857-2.237c1.855,3.815,3.517,7.232,5.179,10.65c-0.101,0.067-0.201,0.134-0.302,0.201
		C188.145,84.532,187.38,83.328,186.26,81.567z M189.091,95.603c-1.421-1.638-0.196-2.839,0.985-3.511
		c2.163-1.231,2.354,0.896,3.475,2.151C191.803,94.777,190.517,95.169,189.091,95.603z M210.696,39.042l1.201,5.702
		c-0.164,0.028-0.328,0.055-0.492,0.083l-1.201-5.704C210.368,39.096,210.532,39.069,210.696,39.042z M204.464,102.488
		c-0.021-0.167-0.042-0.334-0.063-0.501l6.376-1.187c0.021,0.167,0.042,0.334,0.063,0.501L204.464,102.488z M211.518,96.433
		c-0.108,0.219-0.263,0.443-0.28,0.672c-0.193,2.644-2.141,3.176-3.926,3.208c-1.195,0.222-1.919,0.547-2.543,0.425
		c-0.75-0.147-1.415-0.675-2.116-1.038c0.601-0.627,1.088-1.461,1.834-1.823c0.791-0.385,1.952-0.112,2.725-0.512
		c0.83-0.43,1.349-1.361,2.094-1.975c0.468-0.385,1.079-0.72,1.675-0.824c0.343-0.06,1.081,0.354,1.113,0.612
		C212.143,95.57,211.727,96.01,211.518,96.433z M204.967,126.683l0.516,2.452c-3.234-2.642-4.527,1.304-6.983,1.563
		C199.367,128.013,201.224,126.902,204.967,126.683z M201.729,158.171c-3.419-2.671-5.818-5.889-5.979-10.242
		c-0.011-0.292,0.101-0.706,0.319-0.868c1.097-0.816,2.249-1.567,3.784-2.616l2.936,13.94
		C202.473,158.327,201.99,158.375,201.729,158.171z M209.19,130.791c-3.441,1.078-6.882,2.156-10.322,3.234l-0.449-0.584
		c1.063-0.924,1.976-2.147,3.225-2.701c1.842-0.818,3.902-1.261,5.917-1.64c0.596-0.112,1.353,0.53,2.036,0.827L209.19,130.791z
		 M254.079,132.005c0.674,2.089,1.213,3.76,1.753,5.432c-3.956,1.054-5.77-0.307-6.22-4.601L254.079,132.005z M341.158,72.196
		c0.951-0.132,1.941-0.012,2.916,0.011c-0.478,0.501-0.91,1.294-1.455,1.37c-1.71,0.238-3.466,0.179-5.205,0.236
		c-0.07-0.242-0.141-0.485-0.212-0.727C338.52,72.78,339.823,72.382,341.158,72.196z M338.438,57.735
		c0.149,0.253,0.299,0.506,0.448,0.758c-2.024,1.045-4.049,2.089-6.073,3.134c-0.111-0.191-0.222-0.382-0.333-0.573
		C334.466,59.948,336.452,58.841,338.438,57.735z M273.864,22.367c-7.212,4.704-14.796,8.833-22.656,12.496
		c-0.209-0.349-0.417-0.699-0.626-1.048C258.14,29.679,266.047,26.124,273.864,22.367z M224.375,59.581
		c1.382-0.898,2.073-2.392,4.511-2.483c2.081-0.078,4.124-2.424,6.537-3.193c0.098-0.031-0.031-0.693-0.054-1.061
		c0.265-0.08,0.53-0.161,0.795-0.241c0.696,2.073,1.391,4.145,2.008,5.984c-1.405,0.262-2.728,0.291-3.846,0.756
		c-3.653,1.517-7.169,3.352-10.905,4.634c-0.549,0.189-3.224,2.025-3.662-0.619C221.353,62.031,222.743,60.642,224.375,59.581z
		 M233.839,68.405c0.056,0.088,0.113,0.176,0.169,0.264c-2.288,0.694-4.544,1.507-6.872,2.051c-2.841,0.664-5.742,1.101-8.653,1.536
		C223.602,70.972,228.721,69.689,233.839,68.405z M223.277,146.028c0.495-4.341,1.627-4.99,4.87-3.464
		C226.681,143.607,225.225,144.642,223.277,146.028z M239.999,138.012l1.369,9.637c-0.391-1.711-1.261-3.155-3.335-4.069
		c-1.869-0.824-3.515-2.093-5.624-3.386c1.23-0.76,2.079-1.284,3.021-1.866c-1.146-0.592-2.329-1.204-3.569-1.845
		C234.187,135.147,237.369,135.78,239.999,138.012z M234.171,95.112c-0.497-1.215-0.97-2.372-1.202-2.939
		c1.534,0.199,3.248,0.422,5.139,0.667l0.475,2.256C236.902,95.103,235.565,95.108,234.171,95.112z M242.474,94.01
		c-0.6,0.159-1.246,0.47-1.883,0.456c-0.566-0.012-1.397-0.25-1.613-0.635c-0.252-0.449-0.109-1.222,0.123-1.755
		c0.393-0.907,0.989-1.736,1.686-2.911C242.565,88.883,242.565,88.883,242.474,94.01z M263.596,81.627
		c-0.443,0.165-0.953,0.178-1.474,0.157c-0.657,0.09-1.302,0.124-1.955,0.047c-0.398,0.055-0.798,0.098-1.202,0.108
		c-0.495,0.013-1.152-0.279-1.356-0.731c-0.064-0.142-0.119-0.281-0.169-0.42c-0.095-0.116-0.199-0.24-0.324-0.377
		c-2.279-2.499-0.822-3.955,0.835-5.72c0.424-0.451,0.643-1.361,0.462-1.918c-0.111-0.34-1.162-0.42-1.799-0.589
		c-0.154-0.041-0.341,0.032-0.513,0.052c-4.378,0.515-4.378,0.515-7.152-1.989c-0.679,3.121-1.335,6.132-1.991,9.143
		c-0.261-0.027-0.522-0.055-0.783-0.082c-0.262-4.384-2.065-8.674-0.216-13.192c0.726-1.774,1.57-2.096,3.289-1.344
		c3.067,1.342,6.169,2.52,9.597,0.94c0.395-0.182,1.017,0.015,1.52,0.103c9.53,1.67,19.059,3.347,28.586,5.035
		c0.491,0.087,0.959,0.286,1.736,0.524C281.431,74.892,272.53,78.299,263.596,81.627z M300.763,68.463
		c-1.854,0.065-3.213,0.329-4.486,0.123c-13.55-2.192-27.087-4.455-40.624-6.716c-0.447-0.075-0.859-0.334-1.287-0.507
		c0.064-0.296,0.129-0.593,0.193-0.889C269.765,63.104,284.969,65.733,300.763,68.463z M267.588,44.992
		c-4.435,1.003-8.981,1.928-13.102,3.673c-2.54,1.076-4.388,3.611-6.501,5.535c-0.138,0.126,0.111,0.627,0.219,1.144
		c-3.402-0.578-5.853-2.014-7.456-4.575c1.375-0.899,2.461-1.594,3.529-2.311c3.727-2.503,2.753-6.23,0.188-8.811
		c-1.148-1.155-2.239-2.36-3.355-3.543c3.54-0.512,11.653,4.048,12.783,7.701c0.141,0.455,0.319,0.901,0.486,1.369
		c5.238-0.975,10.349-2.035,15.504-2.85c3.835-0.607,7.726-0.896,11.592-1.327c0.07,0.443,0.139,0.887,0.209,1.33
		C276.982,43.201,272.245,43.939,267.588,44.992z M372.832,25.13c-0.476,0.136-0.944,0.31-1.43,0.403
		c-16.992,3.239-33.976,6.517-50.983,9.683c-9.175,1.708-18.409,3.143-27.575,4.891c-0.24,0.046-2.195,0.669-2.739-0.008
		c-0.338-0.421,0.184-0.945,0.003-1.807c0.888,0.067,1.792,0.213,2.635,0.06c4.51-0.818,8.983-1.815,13.495-2.624
		c11.572-2.075,23.166-4.042,34.734-6.134c9.697-1.754,19.367-3.641,29.06-5.413c0.906-0.166,1.896,0.072,2.847,0.122
		C372.863,24.578,372.847,24.854,372.832,25.13z"/>
	<path d="M197.021,97.299"/>
	<path d="M245.556,93.326"/>
	<path d="M140.9,42.509c4.791,0.946,9.573,1.935,14.376,2.825c5.104,0.946,10.239,1.743,15.336,2.721
		c1.541,0.296,2.999,0.979,4.494,1.485c-0.039,0.35-0.078,0.7-0.117,1.05c-1.814,0.061-3.679,0.408-5.434,0.135
		c-8.625-1.342-17.215-2.882-25.833-4.263c-1.343-0.215-2.812,0.242-4.147,0.007c-1.747-0.308-3.411-1.016-5.125-1.509
		c-0.38-0.109-1.35,0.204-1.754-0.262c-0.198-0.228-0.129-0.453-0.462-0.839c-0.257-0.298-0.422-0.309-0.603-0.583
		c-0.206-0.313-0.086-0.676-0.215-0.802c-0.82-0.803-0.44-2.043-0.794-2.67c-1.242-2.199,0.334-2.606,2.292-3.674
		c-1.029,0.274-2.833,0.75-5.081,1.316c-19.615,4.939-34.65,7.079-39.621,7.749c-2.442,0.329-6.173,0.804-10.779,1.272
		c17.575-3.842,35.153-7.674,52.719-11.551c1.238-0.273,2.393-0.882,4.16-1.553c2.167,0.718,2.926,0.524,3.823-1.116
		c1.508-0.079,2.851,0.083,4.035-0.252c4.957-1.403,9.794-3.231,14.807-4.399c12.45-2.901,24.969-5.537,37.47-8.241
		c1.03-0.223,2.132-0.145,3.248,0.1c-18.756,4.6-36.542,12.488-56.359,13.83c3.317,1.118,3.545,3.352,3.563,5.878
		c0.004,0.588,1.205,1.563,1.981,1.692c8.961,1.492,17.944,2.868,26.929,4.228c0.64,0.097,1.34-0.221,2.019-0.269
		c2.019-0.142,4.04-0.246,6.061-0.365c0.051,0.294,0.101,0.589,0.152,0.883c-1.906,1.336-3.812,2.672-5.928,4.156
		c-0.061-0.837-0.106-1.447-0.131-1.798C164.288,45.962,152.594,44.236,140.9,42.509z M135.599,37.269
		c0.745,1.436,1.435,2.767,2.125,4.098c0.276-0.089,0.551-0.177,0.827-0.266c-0.041-1.074-0.082-2.148-0.122-3.195
		c1.721-0.598,3.352-1.165,4.983-1.732c-0.104-0.309-0.209-0.619-0.313-0.928C140.642,35.909,138.184,36.571,135.599,37.269z"/>
	<path d="M91.071,100.859c-0.243,0.229-0.487,0.458-0.73,0.687c0.569,0.551,0.616,0.911,0.56,1.134
		c-0.574,2.283-14.475,0.443-38.149-1.005c-13.434-0.822-23.477-1.117-23.468-1.359c0.006-0.158,4.275-0.141,6.312-0.135
		c31.301,0.094,58.332-0.832,58.372,0.057C93.973,100.361,93.466,100.555,91.071,100.859z"/>
	<path d="M31.518,74.135c2.165-1.428,3.922-2.647,5.144-3.508c4.755-3.351,10.329-7.588,14.057-10.722
		c0.288-0.242,0.874-0.737,1.711-1.38c2.119-1.627,4.009-2.79,5.342-3.549c-2.831,2.665-5.662,5.33-8.493,7.996
		c-0.202,0.233-0.551,0.636-0.993,1.127c-5.694,6.344-7.493,6.274-11.736,11.038c-1.724,1.936-2.567,3.228-3.477,3.016
		C31.988,77.901,31.643,75.697,31.518,74.135z"/>
	<path d="M37.014,75.099c-1.605-1.688,0.255-2.437,1.164-3.186c2.449-2.016,5.063-3.855,7.611-5.764
		c-1.006,1.151-1.951,2.355-3.032,3.44C40.888,71.464,38.933,73.266,37.014,75.099z"/>
	<path class="st0" d="M219.76,63.359c1.593-1.328,2.983-2.718,4.614-3.778c1.382-0.898,2.073-2.391,4.511-2.483
		c2.081-0.078,4.124-2.424,6.537-3.193c0.098-0.031-0.031-0.693-0.054-1.06c0.265-0.08,0.53-0.161,0.795-0.241
		c0.696,2.073,1.391,4.145,2.008,5.984c-1.405,0.262-2.728,0.291-3.846,0.756c-3.653,1.517-7.169,3.352-10.905,4.634
		C222.872,64.167,220.197,66.004,219.76,63.359z"/>
	<path class="st0" d="M199.853,144.444c0.981,4.659,1.945,9.235,2.936,13.94c-0.316-0.058-0.8-0.01-1.061-0.214
		c-3.419-2.671-5.818-5.889-5.979-10.242c-0.011-0.292,0.101-0.706,0.319-0.868C197.167,146.244,198.319,145.493,199.853,144.444z"
		/>
	<path class="st0" d="M207.312,100.314c-1.195,0.222-1.919,0.547-2.544,0.424c-0.75-0.147-1.415-0.675-2.116-1.038
		c0.601-0.627,1.088-1.461,1.834-1.823c0.791-0.385,1.952-0.112,2.725-0.512c0.83-0.43,1.349-1.361,2.094-1.975
		c0.468-0.385,1.078-0.72,1.675-0.824c0.343-0.06,1.081,0.354,1.113,0.612c0.049,0.391-0.368,0.831-0.577,1.255
		c-0.108,0.219-0.263,0.443-0.28,0.672C211.045,99.749,209.097,100.282,207.312,100.314z"/>
	<path class="st0" d="M100.172,112.22c-1.661-1.658-3.322-3.316-4.842-4.833c3.541-1.318,7.344-3.667,11.833-2.869
		c-2.086,0.753-4.482,1.618-6.986,2.521c0.207,1.668,0.403,3.243,0.599,4.818C100.574,111.978,100.373,112.099,100.172,112.22z"/>
	<path class="st0" d="M209.19,130.791c-3.441,1.078-6.882,2.156-10.322,3.234c-0.15-0.195-0.299-0.389-0.449-0.584
		c1.063-0.924,1.976-2.147,3.225-2.701c1.842-0.818,3.902-1.261,5.917-1.64c0.596-0.112,1.353,0.53,2.036,0.827
		C209.462,130.215,209.326,130.503,209.19,130.791z"/>
	<path class="st0" d="M240.785,89.165c1.78-0.282,1.78-0.282,1.689,4.845c-0.6,0.159-1.246,0.47-1.883,0.456
		c-0.566-0.012-1.397-0.25-1.613-0.635c-0.252-0.449-0.109-1.222,0.123-1.755C239.493,91.169,240.089,90.34,240.785,89.165z"/>
	<path class="st0" d="M238.583,95.098c-1.681,0.006-3.018,0.01-4.412,0.015c-0.497-1.215-0.97-2.372-1.202-2.939
		c1.534,0.199,3.248,0.422,5.139,0.667C238.194,93.249,238.336,93.923,238.583,95.098z"/>
	<path class="st0" d="M234.008,68.669c-2.288,0.694-4.544,1.507-6.872,2.05c-2.841,0.664-5.742,1.101-8.653,1.536
		c5.119-1.283,10.238-2.567,15.357-3.85C233.896,68.493,233.952,68.581,234.008,68.669z"/>
	<path class="st0" d="M204.967,126.683c0.15,0.712,0.298,1.416,0.516,2.452c-3.234-2.642-4.527,1.304-6.983,1.563
		C199.366,128.013,201.224,126.901,204.967,126.683z"/>
	<path class="st0" d="M223.277,146.028c0.495-4.34,1.627-4.99,4.87-3.464C226.681,143.607,225.225,144.642,223.277,146.028z"/>
	<path class="st0" d="M344.122,72.155c-0.497,0.496-0.939,1.344-1.503,1.422c-1.71,0.238-3.466,0.179-5.205,0.236
		c-0.071-0.242-0.141-0.485-0.212-0.727c1.317-0.307,2.619-0.704,3.954-0.89c0.989-0.138,2.022,0.001,3.035,0.015
		C344.193,72.21,344.122,72.155,344.122,72.155z"/>
	<path class="st0" d="M210.696,39.042c0.4,1.901,0.801,3.802,1.201,5.702c-0.164,0.028-0.328,0.055-0.492,0.083
		c-0.4-1.901-0.801-3.803-1.201-5.704C210.368,39.096,210.532,39.069,210.696,39.042z"/>
	<path class="st0" d="M210.839,101.302c-2.125,0.396-4.25,0.791-6.375,1.187c-0.021-0.167-0.042-0.334-0.063-0.501
		c2.125-0.396,4.25-0.791,6.376-1.187C210.797,100.967,210.818,101.134,210.839,101.302z"/>
	<path class="st0" d="M338.886,58.493c-2.025,1.045-4.049,2.089-6.074,3.134c-0.111-0.191-0.222-0.382-0.333-0.573
		c1.986-1.106,3.972-2.213,5.958-3.319C338.587,57.988,338.737,58.241,338.886,58.493z"/>
	<path class="st0" d="M92.147,107.436c-0.057-2.627,1.32-4.164,3.729-4.216C94.641,104.617,93.406,106.013,92.147,107.436z"/>
	<path class="st0" d="M135.599,37.269c2.586-0.697,5.043-1.36,7.5-2.023c0.104,0.309,0.209,0.619,0.313,0.928
		c-1.631,0.567-3.262,1.134-4.983,1.732c0.04,1.046,0.081,2.12,0.122,3.195c-0.276,0.089-0.551,0.177-0.827,0.266
		C137.034,40.036,136.344,38.705,135.599,37.269z"/>
	<path d="M243.941,142.393c1.125,5.339-2.568,10.524-8.247,11.582c-5.679,1.057-11.195-2.414-12.32-7.753
		c-1.125-5.339,2.568-10.524,8.247-11.582C237.301,133.582,242.817,137.053,243.941,142.393z"/>
	<path class="st0" d="M242.789,142.607c0.998,4.741-2.28,9.345-7.323,10.284c-5.043,0.939-9.94-2.144-10.939-6.884
		s2.28-9.345,7.323-10.284C236.893,134.784,241.79,137.866,242.789,142.607z"/>
	<path d="M258.499,45.008c2.527,12-15.696,25.502-40.704,30.157c-25.008,4.655-47.329-1.3-49.857-13.3
		c-2.527-12,15.696-25.502,40.704-30.157S255.971,33.008,258.499,45.008z"/>
	<path d="M179.726,33.444c0.721,3.426,13.922,3.854,29.484,0.958c15.562-2.897,27.592-8.022,26.871-11.447
		c-0.721-3.426-13.922-3.854-29.484-0.958S179.004,30.018,179.726,33.444z"/>
	<path d="M203.484,158.71l-5.346,0.995c-1.191,0.222-2.348-0.506-2.584-1.626l-3.564-16.923c-0.236-1.12,0.539-2.208,1.73-2.429
		l5.346-0.995c1.191-0.222,2.348,0.506,2.584,1.626l3.564,16.923C205.45,157.401,204.676,158.488,203.484,158.71z"/>
	<path d="M212.179,149.76l-8.626,1.606c-1.191,0.222-2.348-0.506-2.584-1.626l-4.311-20.471c-0.236-1.12,0.539-2.208,1.73-2.429
		l8.626-1.606c1.191-0.222,2.348,0.506,2.584,1.626l4.311,20.471C214.144,148.45,213.37,149.538,212.179,149.76z"/>
	<path d="M292.021,12.33c0.423,2.01-0.967,3.963-3.105,4.361c-2.138,0.398-4.215-0.909-4.638-2.919
		c-0.423-2.01,0.967-3.963,3.105-4.361C289.521,9.012,291.597,10.319,292.021,12.33z"/>
	<path d="M346.953,65.628c1.12,5.319-2.567,10.487-8.236,11.542s-11.172-2.402-12.293-7.721c-1.12-5.319,2.567-10.487,8.236-11.542
		c2.192-0.408,4.012-0.04,4.718,0.138C343.234,59.02,346.212,62.109,346.953,65.628z"/>
	<path d="M344.44,72.696"/>
	<path d="M108.245,105.247c0.913,4.335-2.433,8.609-7.473,9.547c-5.04,0.938-9.867-1.815-10.779-6.15
		c-0.913-4.334,2.433-8.609,7.474-9.547S107.332,100.912,108.245,105.247z"/>
	<path d="M83.375,101.587"/>
	<path d="M98.65,106.724"/>
	<path d="M44.109,80.636c0.555,2.637-1.268,5.198-4.073,5.72c-2.805,0.522-5.529-1.192-6.084-3.829
		c-0.555-2.637,1.268-5.198,4.073-5.72C40.83,76.285,43.554,77.999,44.109,80.636z"/>
	<path d="M37.321,75.503c0.141,0.669-0.266,1.308-0.908,1.427c-0.642,0.12-1.277-0.326-1.418-0.994
		c-0.141-0.669,0.266-1.308,0.908-1.427C36.545,74.39,37.18,74.835,37.321,75.503z"/>
	<path d="M145.359,37.385c0.465,2.209-1.619,4.459-4.656,5.024c-3.037,0.565-5.876-0.768-6.341-2.977
		c-0.465-2.209,1.619-4.459,4.656-5.024C142.055,33.843,144.894,35.176,145.359,37.385z"/>
	<path d="M133.663,43.718"/>
	<polygon points="245.23,98.601 199.22,107.165 197.021,96.725 243.031,88.16 	"/>
	<path d="M182.559,85.673c0.536,2.547,3.479,4.145,6.572,3.569s5.166-3.107,4.629-5.654c-0.536-2.547-3.479-4.145-6.572-3.569
		C184.095,80.594,182.022,83.126,182.559,85.673z"/>
	<path d="M242.571,75.86c0.582,2.762,3.561,4.535,6.654,3.959c3.093-0.576,5.129-3.282,4.547-6.044
		c-0.582-2.762-3.561-4.534-6.654-3.959C244.025,70.392,241.989,73.098,242.571,75.86z"/>
	<path d="M258.901,72.781"/>
	<path d="M290.617,37.573"/>
	<ellipse cx="251.565" cy="74.445" rx="3.394" ry="2.916"/>
</g>
</svg>